<svg width="24" height="25" viewBox="0 0 24 25" fill="none" xmlns="http://www.w3.org/2000/svg">
<ellipse cx="12" cy="12.5" rx="12" ry="12" fill="#1B1E36"/>
<path d="M12.0023 17.0456C14.5126 17.0456 16.5476 15.0106 16.5476 12.5004C16.5476 9.99007 14.5126 7.95508 12.0023 7.95508C9.49202 7.95508 7.45703 9.99007 7.45703 12.5004C7.45703 15.0106 9.49202 17.0456 12.0023 17.0456Z" fill="#1B1E36"/>
<path d="M12.0156 5.66602C11.17 5.66602 10.4844 8.73292 10.4844 12.5162C10.4844 16.2994 11.17 19.3663 12.0156 19.3663C12.8611 19.3663 13.5468 16.2994 13.5468 12.5162C13.5468 8.73292 12.8611 5.66602 12.0156 5.66602ZM12.1213 18.9797C12.0246 19.1087 11.9279 19.0119 11.9279 19.0119C11.5385 18.5608 11.3438 17.7225 11.3438 17.7225C10.6627 15.5305 10.8248 10.824 10.8248 10.824C11.1449 7.08761 11.7272 6.20495 11.9253 6.00899C11.9456 5.98899 11.9722 5.97677 12.0006 5.97448C12.0289 5.97218 12.0572 5.97997 12.0804 5.99646C12.3679 6.20019 12.609 7.0522 12.609 7.0522C13.3211 9.69555 13.2566 12.1777 13.2566 12.1777C13.3211 14.3375 12.8998 16.7552 12.8998 16.7552C12.5755 18.5926 12.1213 18.9797 12.1213 18.9797Z" fill="white"/>
<path d="M17.9604 9.10614C17.5394 8.37244 14.5382 9.30405 11.2551 11.1867C7.97191 13.0693 5.656 15.1904 6.07668 15.9238C6.49736 16.6572 9.49885 15.7259 12.782 13.8432C16.0652 11.9606 18.3811 9.83953 17.9604 9.10614ZM6.46509 15.8231C6.30391 15.8028 6.34032 15.6704 6.34032 15.6704C6.53803 15.1082 7.16721 14.5221 7.16721 14.5221C8.7303 12.8404 12.8936 10.639 12.8936 10.639C16.2935 9.05714 17.3496 9.12388 17.6175 9.19764C17.645 9.20531 17.6689 9.22247 17.685 9.24608C17.701 9.26968 17.7082 9.29821 17.7052 9.32661C17.673 9.67754 17.0524 10.3105 17.0524 10.3105C15.1153 12.2443 12.93 13.4238 12.93 13.4238C11.0887 14.5549 8.78194 15.3921 8.78194 15.3921C7.02671 16.0246 6.46515 15.8231 6.46515 15.8231H6.46509Z" fill="white"/>
<path d="M17.943 15.9488C18.3672 15.2171 16.0572 13.0863 12.7855 11.1895C9.51389 9.29267 6.51309 8.34954 6.08922 9.08255C5.66534 9.81556 7.97504 11.9451 11.2486 13.8419C14.5221 15.7387 17.5191 16.6819 17.943 15.9488ZM6.37034 9.3653C6.30767 9.21672 6.43996 9.18094 6.43996 9.18094C7.02564 9.07033 7.84833 9.32237 7.84833 9.32237C10.0865 9.83204 14.0774 12.3319 14.0774 12.3319C17.1501 14.4821 17.6214 15.4292 17.692 15.698C17.6992 15.7256 17.6964 15.7548 17.6841 15.7805C17.6719 15.8063 17.6509 15.8268 17.625 15.8386C17.3045 15.9853 16.4464 15.7667 16.4464 15.7667C13.8014 15.0575 11.6861 13.7581 11.6861 13.7581C9.78548 12.733 7.90611 11.1557 7.90611 11.1557C6.47806 9.9533 6.37078 9.36693 6.37078 9.36693L6.37034 9.3653Z" fill="white"/>
<path d="M12.0012 13.3051C12.4463 13.3051 12.8071 12.9443 12.8071 12.4993C12.8071 12.0542 12.4463 11.6934 12.0012 11.6934C11.5561 11.6934 11.1953 12.0542 11.1953 12.4993C11.1953 12.9443 11.5561 13.3051 12.0012 13.3051Z" fill="white"/>
<path d="M15.3073 9.88699C15.5654 9.88699 15.7747 9.67051 15.7747 9.40346C15.7747 9.13641 15.5654 8.91992 15.3073 8.91992C15.0491 8.91992 14.8398 9.13641 14.8398 9.40346C14.8398 9.67051 15.0491 9.88699 15.3073 9.88699Z" fill="white"/>
<path d="M7.63149 11.5335C7.88965 11.5335 8.09892 11.317 8.09892 11.0499C8.09892 10.7829 7.88965 10.5664 7.63149 10.5664C7.37334 10.5664 7.16406 10.7829 7.16406 11.0499C7.16406 11.317 7.37334 11.5335 7.63149 11.5335Z" fill="white"/>
<path d="M11.0495 17.4632C11.3076 17.4632 11.5169 17.2467 11.5169 16.9796C11.5169 16.7126 11.3076 16.4961 11.0495 16.4961C10.7913 16.4961 10.582 16.7126 10.582 16.9796C10.582 17.2467 10.7913 17.4632 11.0495 17.4632Z" fill="white"/>
</svg>
