<svg width="24" height="24" viewBox="0 0 24 24" fill="none" xmlns="http://www.w3.org/2000/svg">
<ellipse cx="12" cy="12" rx="12" ry="12" fill="#596782"/>
<path fillRule="evenodd" clipRule="evenodd" d="M14.8022 7.79092C16.2205 7.60243 17.233 7.9111 17.6547 8.66244C18.138 9.52386 17.6966 10.7866 16.6101 12.0684C17.6966 13.3502 18.1379 14.613 17.6547 15.4743C17.314 16.0812 16.5873 16.3997 15.5736 16.3997C15.3156 16.3987 15.0579 16.3807 14.8022 16.3458C14.6222 16.3217 14.4373 16.2884 14.2495 16.2493C13.7141 17.8116 12.8803 18.8028 11.9248 18.8028C10.9678 18.8028 10.1328 17.808 9.59747 16.2411C9.1676 16.3338 8.73003 16.3837 8.29085 16.3899C7.29497 16.3899 6.54052 16.091 6.19472 15.4743C5.71149 14.6129 6.15286 13.3502 7.23956 12.0684C6.15286 10.7866 5.71149 9.52386 6.19475 8.66244C6.67962 7.79921 7.96909 7.5629 9.59769 7.89514C10.133 6.32848 10.9679 5.33398 11.9248 5.33398C12.8803 5.33398 13.7141 6.32516 14.2496 7.88746C14.4373 7.84834 14.6223 7.81505 14.8022 7.79092ZM15.5793 8.43126C15.3486 8.4325 15.1183 8.44895 14.8896 8.48052C14.8004 8.49248 14.7062 8.51363 14.612 8.5348C14.5588 8.54675 14.5056 8.5587 14.4533 8.56901C14.6051 9.159 14.7139 9.75986 14.7786 10.3666C15.2628 10.7299 15.7203 11.1295 16.1473 11.5621C17.0308 10.5052 17.3702 9.5452 17.0703 9.01052C16.8578 8.63222 16.3289 8.43126 15.5793 8.43126ZM11.9283 14.7053C12.2987 14.5278 12.6779 14.3257 13.0624 14.0971C13.4484 13.8677 13.8092 13.6297 14.1449 13.3872C14.1819 12.9672 14.2025 12.5272 14.2025 12.0684C14.2025 11.6096 14.1819 11.1696 14.1449 10.7496C13.8092 10.5071 13.4484 10.2691 13.0624 10.0397C12.6755 9.80963 12.2958 9.61202 11.9231 9.43367C11.5446 9.61519 11.1646 9.81529 10.787 10.0397C10.4011 10.269 10.0405 10.5069 9.70486 10.7493C9.66781 11.1694 9.64724 11.6095 9.64724 12.0684C9.64724 12.5273 9.66781 12.9674 9.70486 13.3874C10.0405 13.6298 10.4011 13.8678 10.787 14.0971C11.1663 14.3225 11.548 14.5232 11.9283 14.7053ZM13.7979 15.419C13.8943 15.0512 13.972 14.6784 14.0306 14.3023C13.8266 14.4372 13.6173 14.5699 13.4005 14.6987C13.1835 14.8276 12.9669 14.9478 12.7511 15.0623C13.094 15.1992 13.4434 15.3182 13.7979 15.419ZM10.0521 15.4197C10.4077 15.3193 10.7582 15.2005 11.1021 15.0637C10.884 14.9479 10.6661 14.8275 10.4495 14.6987C10.2326 14.5698 10.0232 14.4371 9.81907 14.3021C9.87775 14.6785 9.95552 15.0516 10.0521 15.4197ZM8.16349 12.0684C8.42796 12.338 8.70562 12.5935 8.9954 12.8339C8.98347 12.5827 8.97606 12.328 8.97606 12.0684C8.97606 11.8088 8.98347 11.5541 8.9954 11.3028C8.70562 11.5433 8.42796 11.7988 8.16349 12.0684ZM10.0516 8.71908C9.95532 9.08654 9.8777 9.45892 9.81909 9.83471C10.0233 9.69966 10.2327 9.56696 10.4495 9.43807C10.6668 9.30889 10.8852 9.18821 11.1039 9.07221C10.7592 8.93613 10.408 8.81826 10.0516 8.71908ZM13.7979 8.71779C13.4435 8.81855 13.0942 8.93755 12.7514 9.07433C12.9672 9.18885 13.1837 9.30918 13.4006 9.43809C13.6173 9.5669 13.8266 9.69956 14.0307 9.83453C13.972 9.45837 13.8943 9.08561 13.7979 8.71779ZM15.6859 12.0684C15.4215 11.7989 15.144 11.5435 14.8543 11.3031C14.8663 11.5542 14.8737 11.8088 14.8737 12.0684C14.8737 12.328 14.8662 12.5826 14.8543 12.8337C15.144 12.5933 15.4215 12.3379 15.6859 12.0684ZM13.5945 8.05161C13.1477 6.78058 12.5182 6.0249 11.9248 6.0249C11.3311 6.0249 10.701 6.78193 10.254 8.05518C10.8243 8.21843 11.3824 8.42418 11.9237 8.67081C12.4655 8.42348 13.0239 8.21654 13.5945 8.05161ZM8.27809 8.43848C7.52366 8.43848 6.98807 8.63814 6.77913 9.01052C6.47919 9.54524 6.8186 10.5053 7.70218 11.5623C8.12929 11.1297 8.58682 10.7301 9.07104 10.3667C9.13603 9.7575 9.24544 9.15417 9.39833 8.56183C9.02941 8.48525 8.6544 8.44395 8.27809 8.43848ZM7.70218 12.5745C6.8186 13.6314 6.47919 14.5915 6.77913 15.1262C7.08062 15.6636 8.06257 15.8409 9.39921 15.5783C9.24581 14.9849 9.13611 14.3804 9.07104 13.77C8.58684 13.4067 8.12931 13.0071 7.70218 12.5745ZM10.2536 16.0807C10.7006 17.3545 11.3309 18.1119 11.9248 18.1119C12.5182 18.1119 13.1477 17.3561 13.5945 16.0851C13.0246 15.9204 12.4669 15.7138 11.9257 15.4669C11.3836 15.7132 10.8248 15.9183 10.2536 16.0807ZM14.8896 15.6562C16.0042 15.8053 16.7972 15.6116 17.0703 15.1262C17.3702 14.5916 17.0308 13.6316 16.1473 12.5747C15.7203 13.0073 15.2628 13.4068 14.7786 13.7702C14.7139 14.3769 14.6051 14.9778 14.4533 15.5678C14.5056 15.5781 14.5588 15.59 14.612 15.602C14.7062 15.6231 14.8003 15.6443 14.8896 15.6562ZM13.2315 12.0684C13.2315 12.8112 12.6466 13.4134 11.9249 13.4134C11.2033 13.4134 10.6183 12.8112 10.6183 12.0684C10.6183 11.3255 11.2033 10.7233 11.9249 10.7233C12.6466 10.7233 13.2315 11.3255 13.2315 12.0684Z" fill="white"/>
</svg>
