<svg width="14" height="16" viewBox="0 0 14 16" fill="none" xmlns="http://www.w3.org/2000/svg">
  <path d="M3.50879 2.27311L6.99707 0L13.9995 4.52712L10.5165 6.79829L3.50879 2.27311Z" fill="#233DBD"/>
  <path d="M3.58105 7.88639L7.06933 5.61328L13.9995 10.0715L10.5808 12.3832L3.58105 7.88639Z" fill="#233DBD" fill-opacity="0.4"/>
  <path d="M0.0107422 11.1442L3.5094 8.87109L10.4963 13.4068L6.99768 15.6589L0.0107422 11.1442Z" fill="#233DBD" fill-opacity="0.6"/>
  <path d="M0 4.52569L3.50858 2.26562V8.87061L0 11.1482V4.52569Z" fill="#233DBD"/>
  <path d="M10.5812 12.382L14.0001 10.0703V11.1301L10.5088 13.399L10.5812 12.382Z" fill="#233DBD" fill-opacity="0.5"/>
  <path d="M3.50879 2.27311L6.99707 0L13.9995 4.52712L10.5165 6.79829L3.50879 2.27311Z" fill="#233DBD"/>
  <path d="M3.58105 7.88639L7.06933 5.61328L13.9995 10.0715L10.5808 12.3832L3.58105 7.88639Z" fill="#233DBD" fill-opacity="0.4"/>
  <path d="M0.0107422 11.1442L3.5094 8.87109L10.4963 13.4068L6.99768 15.6589L0.0107422 11.1442Z" fill="#233DBD" fill-opacity="0.6"/>
  <path d="M0 4.52569L3.50858 2.26562V8.87061L0 11.1482V4.52569Z" fill="#233DBD"/>
  <path d="M10.5812 12.382L14.0001 10.0703V11.1301L10.5088 13.399L10.5812 12.382Z" fill="#233DBD" fill-opacity="0.5"/>
</svg>
