<svg width="16" height="16" viewBox="0 0 16 16" fill="none" xmlns="http://www.w3.org/2000/svg">
<path d="M4.50879 2.27311L7.99707 0L14.9995 4.52712L11.5165 6.79829L4.50879 2.27311Z" fill="#233DBD"/>
<path d="M4.58105 7.88639L8.06933 5.61328L14.9995 10.0715L11.5808 12.3832L4.58105 7.88639Z" fill="#233DBD" fill-opacity="0.4"/>
<path d="M1.01074 11.1442L4.5094 8.87109L11.4963 13.4068L7.99768 15.6589L1.01074 11.1442Z" fill="#233DBD" fill-opacity="0.6"/>
<path d="M1 4.52569L4.50858 2.26562V8.87061L1 11.1482V4.52569Z" fill="#233DBD"/>
<path d="M11.5812 12.382L15.0001 10.0703V11.1301L11.5088 13.399L11.5812 12.382Z" fill="#233DBD" fill-opacity="0.5"/>
<path d="M4.50879 2.27311L7.99707 0L14.9995 4.52712L11.5165 6.79829L4.50879 2.27311Z" fill="#233DBD"/>
<path d="M4.58105 7.88639L8.06933 5.61328L14.9995 10.0715L11.5808 12.3832L4.58105 7.88639Z" fill="#233DBD" fill-opacity="0.4"/>
<path d="M1.01074 11.1442L4.5094 8.87109L11.4963 13.4068L7.99768 15.6589L1.01074 11.1442Z" fill="#233DBD" fill-opacity="0.6"/>
<path d="M1 4.52569L4.50858 2.26562V8.87061L1 11.1482V4.52569Z" fill="#233DBD"/>
<path d="M11.5812 12.382L15.0001 10.0703V11.1301L11.5088 13.399L11.5812 12.382Z" fill="#233DBD" fill-opacity="0.5"/>
</svg>
