<svg width="20" height="20" viewBox="0 0 20 20" fill="none" xmlns="http://www.w3.org/2000/svg">
  <ellipse cx="9.99999" cy="10" rx="10" ry="10" fill="#233DBD"/>
  <path d="M7.64453 6.12234L9.99773 4.58325L14.7216 7.64849L12.3719 9.18626L7.64453 6.12234Z" fill="white"/>
  <path d="M7.69141 9.92336L10.0446 8.38428L14.7197 11.4029L12.4135 12.9681L7.69141 9.92336Z" fill="white"/>
  <path d="M5.28516 12.1289L7.64536 10.5898L12.3588 13.6609L9.99857 15.1857L5.28516 12.1289Z" fill="white"/>
  <path d="M5.27734 7.64841L7.64424 6.11816V10.5903L5.27734 12.1324V7.64841Z" fill="white"/>
  <path d="M12.416 12.9683L14.7224 11.4031V12.1207L12.3672 13.6569L12.416 12.9683Z" fill="white"/>
  <path d="M7.64453 6.12234L9.99773 4.58325L14.7216 7.64849L12.3719 9.18626L7.64453 6.12234Z" fill="white"/>
  <path d="M7.69141 9.92336L10.0446 8.38428L14.7197 11.4029L12.4135 12.9681L7.69141 9.92336Z" fill="white"/>
  <path d="M5.28516 12.1289L7.64536 10.5898L12.3588 13.6609L9.99857 15.1857L5.28516 12.1289Z" fill="white"/>
  <path d="M5.27734 7.64841L7.64424 6.11816V10.5903L5.27734 12.1324V7.64841Z" fill="white"/>
  <path d="M12.416 12.9683L14.7224 11.4031V12.1207L12.3672 13.6569L12.416 12.9683Z" fill="white"/>
</svg>