<svg width="36" height="36" viewBox="0 0 36 36" fill="none" xmlns="http://www.w3.org/2000/svg">
  <ellipse cx="18" cy="18" rx="18" ry="18" fill="#233DBD"/>
  <path d="M13.7617 11.0204L17.9975 8.25L26.5004 13.7674L22.2711 16.5354L13.7617 11.0204Z" fill="#E0E8F4"/>
  <path d="M13.8477 17.8622L18.0834 15.0918L26.4986 20.5252L22.3474 23.3426L13.8477 17.8622Z" fill="white" fill-opacity="0.4"/>
  <path d="M9.51172 21.8319L13.7601 19.0615L22.2442 24.5894L17.9959 27.3341L9.51172 21.8319Z" fill="white" fill-opacity="0.6"/>
  <path d="M9.5 13.7671L13.7604 11.0127V19.0625L9.5 21.8383V13.7671Z" fill="#E0E8F4"/>
  <path d="M22.3496 23.3427L26.5011 20.5254V21.8171L22.2617 24.5822L22.3496 23.3427Z" fill="white" fill-opacity="0.5"/>
  <path d="M13.7617 11.0204L17.9975 8.25L26.5004 13.7674L22.2711 16.5354L13.7617 11.0204Z" fill="#E0E8F4"/>
  <path d="M13.8477 17.8622L18.0834 15.0918L26.4986 20.5252L22.3474 23.3426L13.8477 17.8622Z" fill="white" fill-opacity="0.4"/>
  <path d="M9.51172 21.8319L13.7601 19.0615L22.2442 24.5894L17.9959 27.3341L9.51172 21.8319Z" fill="white" fill-opacity="0.6"/>
  <path d="M9.5 13.7671L13.7604 11.0127V19.0625L9.5 21.8383V13.7671Z" fill="#E0E8F4"/>
  <path d="M22.3496 23.3427L26.5011 20.5254V21.8171L22.2617 24.5822L22.3496 23.3427Z" fill="white" fill-opacity="0.5"/>
</svg>
